<?xml version="1.0" encoding="utf-8"?>
<!-- Generator: Adobe Illustrator 27.1.1, SVG Export Plug-In . SVG Version: 6.00 Build 0)  -->
<svg version="1.1" id="Layer_1" xmlns="http://www.w3.org/2000/svg" xmlns:xlink="http://www.w3.org/1999/xlink" x="0px" y="0px"
	 viewBox="0 0 841.89 595.28" style="enable-background:new 0 0 841.89 595.28;" xml:space="preserve">
<style type="text/css">
	.st0{fill:#04CADC;}
	.st1{fill:#0A447E;}
	.st2{fill:#0988C5;}
	.st3{fill:#0A1B42;}
	.st4{fill:url(#SVGID_1_);}
	.st5{fill:url(#SVGID_00000177463253517173790760000009841611043492093106_);}
</style>
<g>
	<g>
		<path class="st0" d="M335.26,279.45h-31.33c-3.36,0-5.83,0.63-7.4,1.89c-1.57,1.26-2.36,3.25-2.36,5.99
			c0,2.19,0.67,3.83,2.01,4.92c1.34,1.09,3.33,1.64,5.99,1.64h16.77c6.94,0,11.88,1.31,14.82,3.94c2.94,2.62,4.41,7,4.41,13.12
			c0,6.21-1.7,10.76-5.08,13.68c-3.39,2.91-8.72,4.37-15.99,4.37h-33.75v-10.74h31.74c3.61,0,6.15-0.53,7.63-1.58
			c1.48-1.05,2.21-2.79,2.21-5.23c0-2.51-0.68-4.31-2.03-5.37c-1.35-1.07-3.67-1.6-6.95-1.6h-14.97c-6.94,0-12.02-1.39-15.23-4.16
			c-3.21-2.77-4.82-7.16-4.82-13.14c0-6.4,1.69-11.07,5.06-14.02c3.38-2.95,8.74-4.43,16.09-4.43h33.17V279.45z"/>
		<path class="st0" d="M338,268.7h14.27l14.88,23l15.09-23h14.72l-23.29,33.66v26.61h-12.67v-26.61L338,268.7z"/>
		<path class="st0" d="M399.76,268.7h18.62l15.38,46.25l15.38-46.25h18.53v60.28h-12.42l1.03-46.95l-15.46,46.95h-13.45
			l-15.95-47.44l1.27,47.44h-12.92V268.7z"/>
		<path class="st1" d="M493.29,279.28h-19.48v-10.5h52.16v10.5h-19.56v49.7h-13.12V279.28z"/>
		<path class="st1" d="M541.67,268.7h13.45l25.71,60.28h-14.11l-5.54-14.35h-26.2l-5.37,14.35h-13.45L541.67,268.7z M547.9,280.68
			l-8.82,23.21h17.96L547.9,280.68z"/>
		<path class="st1" d="M585.05,268.7h31.2c7.27,0,12.6,1.46,15.99,4.39c3.39,2.93,5.08,7.5,5.08,13.74c0,4.62-1.05,8.39-3.14,11.32
			c-2.09,2.93-5.11,4.81-9.04,5.66l15.05,25.18h-14.27l-13.29-23.7h-14.93v23.7h-12.67V268.7z M613.27,279.45h-15.54v15.17h15.54
			c4.21,0,7.13-0.57,8.78-1.72c1.64-1.15,2.46-3.12,2.46-5.9c0-2.76-0.8-4.71-2.4-5.84C620.5,280.01,617.56,279.45,613.27,279.45z"
			/>
		<path class="st1" d="M665.3,268.7h13.45l25.71,60.28h-14.11l-5.54-14.35h-26.2l-5.37,14.35H639.8L665.3,268.7z M671.53,280.68
			l-8.82,23.21h17.96L671.53,280.68z"/>
	</g>
	<g>
		<path class="st0" d="M186.64,232.1c-2.3,5.42-4.73,10.99-4.05,17.02c0.04,0.31,0.08,0.62,0.13,0.93c0.05,0.31,0.11,0.62,0.17,0.93
			c0.07,0.31,0.14,0.61,0.22,0.92c0.08,0.3,0.17,0.61,0.26,0.91s0.19,0.6,0.3,0.89c0.11,0.3,0.22,0.59,0.34,0.88
			c0.12,0.29,0.25,0.58,0.38,0.86c0.13,0.28,0.27,0.57,0.42,0.84c0.15,0.28,0.3,0.55,0.46,0.82c0.16,0.27,0.33,0.54,0.5,0.8
			c0.17,0.26,0.35,0.52,0.53,0.78c0.18,0.25,0.37,0.51,0.57,0.75c0.2,0.25,0.4,0.49,0.6,0.72c0.21,0.24,0.42,0.47,0.64,0.7
			c0.22,0.23,0.44,0.45,0.67,0.67c0.23,0.22,0.46,0.43,0.7,0.63c2.13,1.86,4.58,3.41,6.9,5.03c3.99,2.8,8.09,5.54,11.9,8.58
			c2.1,1.46,4.28,2.88,6.29,4.46c-6.29,0.07-12.58-0.14-18.87-0.15c-2.69-0.01-5.5-0.16-8.18,0.1c-2.05-1.06-4.43-2.93-6.35-4.3
			c-0.56-0.26-1.14-0.7-1.67-1.03c-2.77-1.74-5.22-3.72-7.16-6.37c-0.11-0.15-0.21-0.29-0.32-0.44c-0.1-0.15-0.21-0.3-0.31-0.45
			c-0.1-0.15-0.2-0.3-0.3-0.46c-0.1-0.15-0.19-0.31-0.28-0.46c-0.09-0.16-0.18-0.31-0.27-0.47c-0.09-0.16-0.18-0.32-0.26-0.48
			c-0.09-0.16-0.17-0.32-0.25-0.48c-0.08-0.16-0.16-0.33-0.24-0.49c-0.08-0.16-0.15-0.33-0.23-0.5c-0.07-0.17-0.14-0.33-0.21-0.5
			c-0.07-0.17-0.14-0.34-0.2-0.51c-0.06-0.17-0.13-0.34-0.19-0.51c-0.06-0.17-0.12-0.34-0.18-0.52c-0.06-0.17-0.11-0.35-0.16-0.52
			c-0.05-0.17-0.1-0.35-0.15-0.52c-0.05-0.18-0.09-0.35-0.14-0.53c-0.04-0.18-0.08-0.35-0.12-0.53c-0.04-0.18-0.08-0.35-0.11-0.53
			c-0.03-0.18-0.07-0.36-0.1-0.54c-0.03-0.18-0.06-0.36-0.08-0.54c-0.03-0.18-0.05-0.36-0.07-0.54c-0.02-0.18-0.04-0.36-0.06-0.54
			c-0.02-0.18-0.03-0.36-0.04-0.54c-0.01-0.18-0.02-0.36-0.03-0.54c-0.01-0.18-0.01-0.36-0.02-0.54c0-0.18,0-0.36,0-0.54
			c0-0.18,0-0.36,0.01-0.54c0.01-0.18,0.01-0.36,0.02-0.54c0.01-0.18,0.02-0.36,0.04-0.54c0.01-0.18,0.03-0.36,0.05-0.54
			c0.02-0.18,0.04-0.36,0.06-0.54c0.02-0.18,0.05-0.36,0.08-0.54c0.46-2.89,1.69-6.26,3.48-8.6c1-1.31,5.7-4.45,7.24-5.59
			C181.57,235.92,184.07,233.96,186.64,232.1z"/>
		<path class="st2" d="M181.17,275.88c9.01-0.34,18.08,0.1,27.1-0.1c2.1,1.46,4.28,2.88,6.29,4.46c-6.29,0.07-12.58-0.14-18.87-0.15
			c-2.69-0.01-5.5-0.16-8.18,0.1C185.47,279.12,183.09,277.25,181.17,275.88z"/>
		<path class="st3" d="M261.46,326.02v-55.18c-2.45,1.58-4.9,3.17-7.34,4.76c-7.54,4.84-15.2,9.53-22.63,14.53
			c3.68,2.64,8.26,5.49,11.61,8.43c4.69,4.11,8.07,9.88,9.1,16.05c0.34,2.02,0.42,4.07,0.37,6.12
			C255.52,322.5,258.48,324.27,261.46,326.02z"/>
		<path class="st3" d="M161.28,299.5c-1.77-1.21-3.6-2.37-5.26-3.73c-4.97-4.07-7.9-9.49-9.08-15.76c-0.23-1.24-0.4-2.48-0.52-3.74
			c-3.02-1.8-6.01-3.66-8.99-5.55v54.68c0.06-0.04,0.12-0.08,0.19-0.12l20.93-13.5c3.52-2.27,7.21-4.45,10.58-6.92L161.28,299.5z"/>
		<path class="st0" d="M187.52,280.18c2.68-0.26,5.49-0.11,8.18-0.1c6.29,0.01,12.58,0.23,18.87,0.15l17.48,12.5
			c4.52,3.24,9.5,6.04,12.96,10.51c4.72,6.09,6.38,14.21,5.4,21.75c-0.67,5.17-2.51,10.64-6.32,14.35c-1.32,1.29-2.9,2.36-4.37,3.49
			l-6.77,5.2c0.78-1.66,1.66-3.27,2.32-4.98c1.88-4.87,2.38-10.51,1.7-15.66c-0.04-0.36-0.1-0.73-0.15-1.09
			c-0.06-0.36-0.12-0.72-0.19-1.08c-0.07-0.36-0.15-0.72-0.23-1.08c-0.08-0.36-0.17-0.71-0.27-1.07c-0.1-0.35-0.2-0.71-0.31-1.06
			c-0.11-0.35-0.23-0.7-0.35-1.04c-0.12-0.35-0.25-0.69-0.38-1.03c-0.13-0.34-0.27-0.68-0.42-1.02c-0.15-0.34-0.3-0.67-0.46-1
			c-0.16-0.33-0.32-0.66-0.49-0.98c-0.17-0.33-0.35-0.65-0.53-0.97c-0.18-0.32-0.37-0.63-0.56-0.95s-0.39-0.62-0.6-0.92
			c-0.2-0.3-0.41-0.61-0.63-0.9c-0.22-0.3-0.44-0.59-0.66-0.88c-0.23-0.29-0.46-0.57-0.69-0.85c-4.04-4.77-9.88-8.11-14.95-11.7
			l-16.55-11.73C194.85,285.45,191.1,282.92,187.52,280.18z"/>
		
			<linearGradient id="SVGID_1_" gradientUnits="userSpaceOnUse" x1="-1476.7855" y1="1927.4403" x2="-1473.1321" y2="1981.8198" gradientTransform="matrix(1 0 0 -1 1694 2201.2756)">
			<stop  offset="0" style="stop-color:#070828"/>
			<stop  offset="1" style="stop-color:#1974A1"/>
		</linearGradient>
		<path class="st4" d="M199.86,217.79c0.68,3.11,1.63,6.08,3.59,8.64c2.25,2.92,5.35,4.9,8.32,7.01c2.56,1.82,5.14,3.62,7.73,5.4
			c3.99,2.76,7.98,5.57,11.88,8.46c1.14,0.85,4.96,3.13,5.64,3.99c1.06,0.59,2.08,1.41,3.08,2.1c1.75,1.22,3.54,2.41,5.24,3.69
			c1.23,0.93,2.11,1.81,2.29,3.42c0.15,1.35-0.11,2.71-1.01,3.77c-0.75,0.88-13.37,9.17-14.99,10.05c-0.5,0.27-0.96,0.43-1.52,0.48
			c-0.69,0.06-1.12-0.07-1.71-0.4c-1.69-0.96-3.26-2.29-4.86-3.41l-9.95-7l-12.35-8.82c-2.31-1.65-4.73-3.24-6.93-5.03
			c-1.95-1.13-3.57-2.44-4.2-4.71c-0.52-1.88-0.47-3.97-0.06-5.87c0.92-4.3,4.15-10.5,6.15-14.61c1.12-2.3,2.2-4.7,3.5-6.9
			C199.75,217.96,199.8,217.87,199.86,217.79z"/>
		<path class="st3" d="M170.54,319.11c0.13,0.05,0.14,0.05,0.28,0.13c2.06,1.12,4.06,2.71,6.01,4.03c4.61,3.09,9.2,6.21,13.77,9.35
			c2.92,1.97,5.85,3.94,8.81,5.86c2.05,1.33,4.54,2.61,6.3,4.31c1.52,1.46,2.46,3.43,3.02,5.45c0.63,2.3,0.71,4.62,0.3,6.97
			c-1.06,6.06-6.97,16.72-10.13,22.28c-0.68-2.22-1.54-4.3-2.63-6.35c-1.27-2.03-2.78-4.06-4.59-5.65
			c-2.92-2.57-6.75-4.64-9.98-6.85l-23.05-15.89c-1.9-1.33-5.54-3.26-6.77-5.05c-0.05-0.07-0.1-0.15-0.15-0.23
			c-0.05-0.08-0.09-0.15-0.14-0.23c-0.04-0.08-0.09-0.16-0.13-0.24c-0.04-0.08-0.08-0.16-0.11-0.25c-0.04-0.08-0.07-0.17-0.1-0.25
			c-0.03-0.08-0.06-0.17-0.09-0.26c-0.03-0.09-0.05-0.17-0.07-0.26c-0.02-0.09-0.04-0.18-0.06-0.26c-0.02-0.09-0.03-0.18-0.05-0.27
			c-0.01-0.09-0.02-0.18-0.03-0.27c-0.01-0.09-0.01-0.18-0.02-0.27c0-0.09,0-0.18,0-0.27c0-0.09,0.01-0.18,0.01-0.27
			c0.01-0.09,0.01-0.18,0.03-0.27c0.01-0.09,0.02-0.18,0.04-0.27c0.02-0.09,0.03-0.18,0.05-0.27c0.2-0.89,0.52-1.62,1.16-2.27
			c1.82-1.85,4.8-3.39,7.01-4.82C163.02,324.04,166.79,321.59,170.54,319.11z"/>
		<path class="st2" d="M166.61,246.83c-1.32,3.01-2.84,5.94-3.86,9.07c-0.45,1.38-0.7,2.81-1.04,4.22
			c-0.69,6.97,0.86,13.46,5.34,18.98c3.17,3.91,7.39,6.57,11.46,9.42l8,5.68l25.91,18.24c3.61,2.56,8.9,5.78,11.72,9.01
			c3.75,4.29,6.33,10.37,6.35,16.11c0.17,1.5,0.01,3.09-0.23,4.58c-0.15,0.93-0.37,1.85-0.65,2.75c-0.28,0.9-0.62,1.78-1.02,2.64
			c-2.19,4.77-5.09,6.6-9.03,9.69c-2.31,1.81-4.58,3.7-6.96,5.43c2.3-3.65,4.07-7.52,4.63-11.83c0.77-6.03-0.73-12.07-4.45-16.9
			c-0.53-0.69-1.1-1.35-1.7-1.98c-0.61-0.63-1.25-1.22-1.92-1.77c-1.72-1.39-3.63-2.56-5.46-3.78c-2.76-1.85-5.5-3.71-8.24-5.6
			c-9.38-6.61-18.82-13.15-28.3-19.62c-4.04-2.75-10.41-6.4-13.3-10.2c-4.66-6.12-6.51-13.51-5.44-21.11
			c0.75-5.34,3.42-10.78,7.28-14.55c1.58-1.54,3.46-2.82,5.22-4.15L166.61,246.83z"/>
		<path class="st1" d="M161.71,260.12c-0.69,6.97,0.86,13.46,5.34,18.98c3.17,3.91,7.39,6.57,11.46,9.42l8,5.68l25.91,18.24
			c3.61,2.56,8.9,5.78,11.72,9.01c3.75,4.29,6.33,10.37,6.35,16.11c-0.51-0.79-0.76-2.09-1.06-2.99c-0.98-2.95-2.41-5.58-4.55-7.87
			c-4.09-4.37-9.57-7.6-14.48-10.97l-26.6-18.64l-6.8-4.8c-3.63-2.53-7.17-4.93-10.19-8.22c-2.61-2.84-4.62-6.21-5.61-9.96
			C160.33,270.79,159.91,263.18,161.71,260.12z"/>
	</g>
</g>
</svg>
